<svg version="1.1" id="Layer_1" xmlns="http://www.w3.org/2000/svg" xmlns:xlink="http://www.w3.org/1999/xlink" x="0px" y="0px"
	 width="100%" viewBox="430 360 740 180" xml:space="preserve">
<path fill="#172530" opacity="1.000000" stroke="none" 
	d="
M531.229736,472.525970 
	C531.298889,477.668915 531.368042,482.811859 531.225098,488.856873 
	C531.225098,492.508606 531.225098,496.160370 531.225098,500.615265 
	C528.628845,498.558685 526.882263,497.175140 524.850769,495.196899 
	C519.997192,490.431641 515.143616,485.666382 509.986023,480.272797 
	C505.707581,476.074738 501.429169,471.876648 496.899323,467.078430 
	C493.886230,464.174194 490.873138,461.269928 487.592163,457.730286 
	C484.358612,454.890015 481.125031,452.049744 479.216522,450.373352 
	C497.174194,432.188934 514.328857,414.817688 531.466797,397.463379 
	C531.466797,407.164642 531.466797,417.245087 531.466797,427.607483 
	C538.361084,427.607483 544.899292,427.607483 551.493286,427.607483 
	C551.493286,410.613403 551.493286,393.932739 551.493286,377.095093 
	C542.597168,377.095093 534.098816,376.850616 525.629517,377.239471 
	C522.982788,377.360962 519.755127,378.523315 517.911865,380.342499 
	C498.609711,399.392944 479.562012,418.700928 460.372559,437.866241 
	C456.903687,441.330719 453.110687,444.470642 449.456970,447.769745 
	C458.527771,456.896729 466.598297,465.017273 474.942627,473.762787 
	C477.716370,476.470886 480.490082,479.178986 483.490570,482.501984 
	C487.764557,486.626678 492.038513,490.751373 496.544861,495.485779 
	C501.591003,500.397522 506.637146,505.309265 511.947632,510.843201 
	C516.812622,515.361023 520.489441,522.132629 529.884705,520.008728 
	C537.096008,520.008728 544.307373,520.008728 551.605530,520.008728 
	C551.605530,511.809082 551.605530,504.546509 551.756042,496.446716 
	C551.786804,491.368439 551.935791,486.287201 551.808472,481.212891 
	C551.717957,477.607727 551.254761,474.011963 550.064697,470.122253 
	C545.599182,470.052155 541.130188,469.852844 536.669983,469.975891 
	C534.901550,470.024658 533.152771,470.789032 531.239197,471.449799 
	C531.239197,471.449799 531.373047,471.685913 531.229736,472.525970 
M853.518005,494.813934 
	C864.319397,494.510040 875.238770,495.108917 885.897705,493.715485 
	C908.513306,490.758911 923.159424,472.626495 923.160034,449.052368 
	C923.160645,425.711182 908.676208,407.818634 885.905151,405.155487 
	C872.258850,403.559448 858.337891,404.302063 844.539612,404.032288 
	C843.449097,404.010925 842.352722,404.292633 841.358154,404.420715 
	C841.358154,434.651733 841.358154,464.548096 841.358154,494.813782 
	C845.266785,494.813782 848.897217,494.813782 853.518005,494.813934 
M1083.072021,503.495697 
	C1083.072021,497.854126 1083.072021,492.212555 1083.072021,485.465149 
	C1098.674194,502.982544 1121.336182,496.159149 1130.390381,483.365967 
	C1138.730103,471.582275 1139.600220,453.609497 1131.891235,441.268219 
	C1119.588013,421.572144 1093.303711,421.977905 1083.951172,435.875885 
	C1083.858765,436.013428 1083.382935,435.892944 1082.785889,435.892944 
	C1082.785889,433.248199 1082.785889,430.650085 1082.785889,427.962250 
	C1077.553101,427.962250 1072.624634,427.962250 1067.649414,427.962250 
	C1067.649414,458.357574 1067.649414,488.442841 1067.649414,518.682861 
	C1072.877075,518.682861 1077.796997,518.682861 1083.068848,518.682861 
	C1083.068848,513.798035 1083.068848,509.144653 1083.072021,503.495697 
M827.065857,464.892029 
	C826.732605,460.427582 827.010071,455.812073 825.950439,451.527252 
	C822.894714,439.170929 815.373413,430.494232 802.882446,427.025696 
	C791.592041,423.890594 781.864441,426.759827 774.239319,435.932220 
	C774.107239,436.091156 773.686096,436.009796 772.840637,436.100677 
	C772.840637,433.376556 772.840637,430.699707 772.840637,428.008759 
	C767.363525,428.008759 762.449280,428.008759 757.347595,428.008759 
	C757.347595,443.353149 757.347595,458.331543 757.347595,473.309967 
	C757.347595,488.407104 757.347595,503.504242 757.347595,518.565308 
	C762.910095,518.565308 767.806885,518.565308 773.298340,518.565308 
	C773.298340,507.823578 773.298340,497.456207 773.298340,485.927399 
	C775.256165,487.716522 776.276794,488.697540 777.348022,489.619751 
	C781.892517,493.532104 787.002319,495.981354 793.149292,496.099304 
	C811.545898,496.452271 824.214783,485.140747 827.065857,464.892029 
M614.633057,435.562439 
	C618.627136,426.688110 625.151428,420.540771 634.649353,418.213043 
	C647.031311,415.178497 657.493469,419.206085 666.218750,428.159454 
	C670.045898,424.318756 673.640564,420.711365 677.216370,417.122925 
	C665.499268,402.947205 642.242493,397.863220 624.015381,405.346558 
	C605.097595,413.113434 593.409180,432.610382 595.218872,453.380768 
	C597.071045,474.638550 611.297180,491.160980 631.913391,495.343506 
	C648.368164,498.681793 668.368958,494.328461 677.646606,479.776215 
	C674.200867,476.509674 670.755127,473.243103 667.287659,469.955963 
	C664.702454,472.052612 662.478821,474.066620 660.049866,475.791626 
	C644.739014,486.665222 623.104126,480.952728 615.149170,463.950073 
	C610.897766,454.863190 610.958374,445.602478 614.633057,435.562439 
M1052.067505,473.544647 
	C1060.805420,447.274933 1041.564697,423.112122 1013.855957,426.200256 
	C999.769958,427.770142 989.238586,435.348541 984.338684,449.047913 
	C979.345703,463.007568 982.210083,475.657715 992.675171,486.248413 
	C1008.040161,501.797943 1041.131958,500.211426 1052.067505,473.544647 
M694.863892,399.902740 
	C693.425598,399.975861 691.987244,400.048950 690.690918,400.114868 
	C690.690918,431.896759 690.690918,463.258667 690.690918,494.622070 
	C695.944153,494.622070 700.724792,494.622070 705.772339,494.622070 
	C705.772339,462.986420 705.772339,431.606201 705.772339,399.898865 
	C702.395447,399.898865 699.080872,399.898865 694.863892,399.902740 
M952.889893,461.042175 
	C954.517212,447.580414 962.705078,441.876038 975.686584,442.474213 
	C975.686584,436.877106 975.686584,431.962524 975.686584,427.078552 
	C966.028564,426.281036 962.791687,427.853973 952.835510,438.198242 
	C952.597412,434.586334 952.377686,431.253662 952.157837,427.918884 
	C946.896301,427.918884 942.117126,427.918884 937.367371,427.918884 
	C937.367371,450.348206 937.367371,472.525787 937.367371,494.582825 
	C942.510376,494.582825 947.256409,494.582825 952.812988,494.582825 
	C952.812988,483.503265 952.812988,472.725006 952.889893,461.042175 
M739.806580,473.499878 
	C739.806580,458.375610 739.806580,443.251343 739.806580,427.947327 
	C734.471252,427.947327 729.561218,427.947327 724.537048,427.947327 
	C724.537048,450.369995 724.537048,472.431549 724.537048,494.413940 
	C729.790100,494.413940 734.663513,494.413940 739.804871,494.413940 
	C739.804871,487.474091 739.804871,480.986908 739.806580,473.499878 
M722.800232,407.071350 
	C722.154724,412.078369 723.724731,416.155579 728.637268,417.876190 
	C732.809326,419.337433 736.899048,418.546875 739.818115,414.764618 
	C742.254272,411.608093 743.319397,407.723511 740.679199,404.675629 
	C738.523804,402.187347 735.076782,399.830261 731.939453,399.418304 
	C727.548340,398.841736 724.158447,401.697510 722.800232,407.071350 
M1134.612549,403.908661 
	C1132.601685,411.721466 1136.309814,418.106659 1143.503662,419.218689 
	C1150.777710,420.343109 1156.840454,415.733246 1157.490112,408.584137 
	C1157.988770,403.097504 1154.359253,398.080658 1148.640503,396.351624 
	C1143.293945,394.735107 1138.176392,397.297913 1134.612549,403.908661 
z"/>
<path fill="#F4F6F7" opacity="1.000000" stroke="none" 
	d="
M853.022827,494.813843 
	C848.897217,494.813782 845.266785,494.813782 841.358154,494.813782 
	C841.358154,464.548096 841.358154,434.651733 841.358154,404.420715 
	C842.352722,404.292633 843.449097,404.010925 844.539612,404.032288 
	C858.337891,404.302063 872.258850,403.559448 885.905151,405.155487 
	C908.676208,407.818634 923.160645,425.711182 923.160034,449.052368 
	C923.159424,472.626495 908.513306,490.758911 885.897705,493.715485 
	C875.238770,495.108917 864.319397,494.510040 853.022827,494.813843 
M857.040283,449.500000 
	C857.040283,459.585907 857.040283,469.671783 857.040283,479.949646 
	C864.993896,479.949646 872.320618,480.335999 879.592407,479.867920 
	C894.020447,478.939148 904.658875,468.353119 906.161499,454.033203 
	C907.944397,437.043060 900.814148,423.807159 886.286987,420.514526 
	C876.943909,418.396912 866.992737,418.962219 857.040344,418.306976 
	C857.040344,429.233704 857.040344,438.866852 857.040283,449.500000 
z"/>
<path fill="#F4F6F7" opacity="1.000000" stroke="none" 
	d="
M474.668823,473.137756 
	C466.598297,465.017273 458.527771,456.896729 449.456970,447.769745 
	C453.110687,444.470642 456.903687,441.330719 460.372559,437.866241 
	C479.562012,418.700928 498.609711,399.392944 517.911865,380.342499 
	C519.755127,378.523315 522.982788,377.360962 525.629517,377.239471 
	C534.098816,376.850616 542.597168,377.095093 551.493286,377.095093 
	C551.493286,393.932739 551.493286,410.613403 551.493286,427.607483 
	C544.899292,427.607483 538.361084,427.607483 531.466797,427.607483 
	C531.466797,417.245087 531.466797,407.164642 531.466797,397.463379 
	C514.328857,414.817688 497.174194,432.188934 479.216522,450.373352 
	C481.125031,452.049744 484.358612,454.890015 487.563660,458.392090 
	C487.356140,460.692017 486.979950,462.336945 487.036652,463.966827 
	C487.182037,468.147461 485.392883,470.218201 481.115845,470.015869 
	C479.352356,469.932465 477.581635,470.002014 475.793060,470.002014 
	C475.489685,470.848206 475.079254,471.992950 474.668823,473.137756 
z"/>
<path fill="#F3F5F5" opacity="1.000000" stroke="none" 
	d="
M1083.070435,503.993469 
	C1083.068848,509.144653 1083.068848,513.798035 1083.068848,518.682861 
	C1077.796997,518.682861 1072.877075,518.682861 1067.649414,518.682861 
	C1067.649414,488.442841 1067.649414,458.357574 1067.649414,427.962250 
	C1072.624634,427.962250 1077.553101,427.962250 1082.785889,427.962250 
	C1082.785889,430.650085 1082.785889,433.248199 1082.785889,435.892944 
	C1083.382935,435.892944 1083.858765,436.013428 1083.951172,435.875885 
	C1093.303711,421.977905 1119.588013,421.572144 1131.891235,441.268219 
	C1139.600220,453.609497 1138.730103,471.582275 1130.390381,483.365967 
	C1121.336182,496.159149 1098.674194,502.982544 1083.072021,485.465149 
	C1083.072021,492.212555 1083.072021,497.854126 1083.070435,503.993469 
M1092.262939,479.485046 
	C1101.000122,483.918488 1109.760498,482.706604 1115.516235,476.268341 
	C1122.059692,468.948883 1122.784790,456.974670 1117.205078,448.376801 
	C1109.493896,436.494507 1092.824097,436.878387 1085.778320,449.100525 
	C1079.963623,459.187286 1082.453247,471.961975 1092.262939,479.485046 
z"/>
<path fill="#F3F5F5" opacity="1.000000" stroke="none" 
	d="
M827.042969,465.320007 
	C824.214783,485.140747 811.545898,496.452271 793.149292,496.099304 
	C787.002319,495.981354 781.892517,493.532104 777.348022,489.619751 
	C776.276794,488.697540 775.256165,487.716522 773.298340,485.927399 
	C773.298340,497.456207 773.298340,507.823578 773.298340,518.565308 
	C767.806885,518.565308 762.910095,518.565308 757.347595,518.565308 
	C757.347595,503.504242 757.347595,488.407104 757.347595,473.309967 
	C757.347595,458.331543 757.347595,443.353149 757.347595,428.008759 
	C762.449280,428.008759 767.363525,428.008759 772.840637,428.008759 
	C772.840637,430.699707 772.840637,433.376556 772.840637,436.100677 
	C773.686096,436.009796 774.107239,436.091156 774.239319,435.932220 
	C781.864441,426.759827 791.592041,423.890594 802.882446,427.025696 
	C815.373413,430.494232 822.894714,439.170929 825.950439,451.527252 
	C827.010071,455.812073 826.732605,460.427582 827.042969,465.320007 
M780.531799,478.086670 
	C783.701172,479.393433 786.768494,481.374725 790.060181,481.872498 
	C797.934631,483.063293 804.068237,479.775574 808.008362,472.856262 
	C812.564026,464.856018 811.765747,453.759064 806.366028,446.905304 
	C797.414307,435.542969 779.883972,437.967346 774.695190,451.461914 
	C770.971130,461.146912 772.370911,470.079559 780.531799,478.086670 
z"/>
<path fill="#F4F6F6" opacity="1.000000" stroke="none" 
	d="
M614.454773,435.910156 
	C610.958374,445.602478 610.897766,454.863190 615.149170,463.950073 
	C623.104126,480.952728 644.739014,486.665222 660.049866,475.791626 
	C662.478821,474.066620 664.702454,472.052612 667.287659,469.955963 
	C670.755127,473.243103 674.200867,476.509674 677.645874,479.778076 
	C668.368958,494.328461 648.368164,498.681793 631.913391,495.343506 
	C611.297180,491.160980 597.071045,474.638550 595.218872,453.380768 
	C593.409180,432.610382 605.097595,413.113434 624.015381,405.346558 
	C642.242493,397.863220 665.499268,402.947205 677.216370,417.122925 
	C673.640564,420.711365 670.045898,424.318756 666.218750,428.159454 
	C657.493469,419.206085 647.031311,415.178497 634.649353,418.213043 
	C625.151428,420.540771 618.627136,426.688110 614.454773,435.910156 
z"/>
<path fill="#F4F6F6" opacity="1.000000" stroke="none" 
	d="
M1051.969360,473.920715 
	C1041.131958,500.211426 1008.040161,501.797943 992.675171,486.248413 
	C982.210083,475.657715 979.345703,463.007568 984.338684,449.047913 
	C989.238586,435.348541 999.769958,427.770142 1013.855957,426.200256 
	C1041.564697,423.112122 1060.805420,447.274933 1051.969360,473.920715 
M1022.694824,440.364258 
	C1010.598389,438.803406 1002.369812,443.795929 999.250305,454.588867 
	C996.277039,464.875824 1000.755798,475.937775 1009.602722,480.158234 
	C1020.322693,485.272217 1032.606812,480.455750 1036.818604,469.487244 
	C1041.547974,457.170868 1035.631958,444.382751 1022.694824,440.364258 
z"/>
<path fill="#F3F5F5" opacity="1.000000" stroke="none" 
	d="
M695.315063,399.900818 
	C699.080872,399.898865 702.395447,399.898865 705.772339,399.898865 
	C705.772339,431.606201 705.772339,462.986420 705.772339,494.622070 
	C700.724792,494.622070 695.944153,494.622070 690.690918,494.622070 
	C690.690918,463.258667 690.690918,431.896759 690.690918,400.114868 
	C691.987244,400.048950 693.425598,399.975861 695.315063,399.900818 
z"/>
<path fill="#F3F5F5" opacity="1.000000" stroke="none" 
	d="
M952.851440,461.494446 
	C952.812988,472.725006 952.812988,483.503265 952.812988,494.582825 
	C947.256409,494.582825 942.510376,494.582825 937.367371,494.582825 
	C937.367371,472.525787 937.367371,450.348206 937.367371,427.918884 
	C942.117126,427.918884 946.896301,427.918884 952.157837,427.918884 
	C952.377686,431.253662 952.597412,434.586334 952.835510,438.198242 
	C962.791687,427.853973 966.028564,426.281036 975.686584,427.078552 
	C975.686584,431.962524 975.686584,436.877106 975.686584,442.474213 
	C962.705078,441.876038 954.517212,447.580414 952.851440,461.494446 
z"/>
<path fill="#F3F5F5" opacity="1.000000" stroke="none" 
	d="
M739.805725,473.999817 
	C739.804871,480.986908 739.804871,487.474091 739.804871,494.413940 
	C734.663513,494.413940 729.790100,494.413940 724.537048,494.413940 
	C724.537048,472.431549 724.537048,450.369995 724.537048,427.947327 
	C729.561218,427.947327 734.471252,427.947327 739.806580,427.947327 
	C739.806580,443.251343 739.806580,458.375610 739.805725,473.999817 
z"/>
<path fill="#9FC4DB" opacity="1.000000" stroke="none" 
	d="
M525.135620,495.791595 
	C526.882263,497.175140 528.628845,498.558685 531.225098,500.615265 
	C531.225098,496.160370 531.225098,492.508606 531.663879,488.367981 
	C533.075989,486.891632 534.311523,486.054474 534.978271,484.891266 
	C538.265442,479.156738 541.992065,474.029877 548.951904,472.368591 
	C549.731812,472.182434 550.294434,471.086151 550.957886,470.411987 
	C551.254761,474.011963 551.717957,477.607727 551.808472,481.212891 
	C551.935791,486.287201 551.786804,491.368439 551.264282,496.796417 
	C549.687927,497.363708 548.160950,497.196899 547.586548,497.857849 
	C541.291931,505.101562 535.145996,512.474426 528.959656,519.812195 
	C520.489441,522.132629 516.812622,515.361023 512.049072,510.320984 
	C511.233093,500.303070 512.781616,498.483398 522.989807,496.884369 
	C523.743652,496.766296 524.422119,496.167114 525.135620,495.791595 
z"/>
<path fill="#BED7E6" opacity="1.000000" stroke="none" 
	d="
M524.993164,495.494263 
	C524.422119,496.167114 523.743652,496.766296 522.989807,496.884369 
	C512.781616,498.483398 511.233093,500.303070 511.916870,510.009888 
	C506.637146,505.309265 501.591003,500.397522 496.689270,494.998657 
	C501.319122,489.974731 505.804596,485.437927 510.290039,480.901123 
	C515.143616,485.666382 519.997192,490.431641 524.993164,495.494263 
z"/>
<path fill="#D6E5EF" opacity="1.000000" stroke="none" 
	d="
M510.138062,480.586975 
	C505.804596,485.437927 501.319122,489.974731 496.573059,494.693787 
	C492.038513,490.751373 487.764557,486.626678 483.646057,482.056793 
	C490.859283,479.465942 495.776245,475.269257 497.150757,467.678558 
	C501.429169,471.876648 505.707581,476.074738 510.138062,480.586975 
z"/>
<path fill="#F3F5F5" opacity="1.000000" stroke="none" 
	d="
M722.857178,406.701660 
	C724.158447,401.697510 727.548340,398.841736 731.939453,399.418304 
	C735.076782,399.830261 738.523804,402.187347 740.679199,404.675629 
	C743.319397,407.723511 742.254272,411.608093 739.818115,414.764618 
	C736.899048,418.546875 732.809326,419.337433 728.637268,417.876190 
	C723.724731,416.155579 722.154724,412.078369 722.857178,406.701660 
z"/>
<path fill="#7CACCA" opacity="1.000000" stroke="none" 
	d="
M529.422180,519.910461 
	C535.145996,512.474426 541.291931,505.101562 547.586548,497.857849 
	C548.160950,497.196899 549.687927,497.363708 551.189026,497.215027 
	C551.605530,504.546509 551.605530,511.809082 551.605530,520.008728 
	C544.307373,520.008728 537.096008,520.008728 529.422180,519.910461 
z"/>
<path fill="#F3F5F5" opacity="1.000000" stroke="none" 
	d="
M497.025024,467.378479 
	C495.776245,475.269257 490.859283,479.465942 483.532715,481.749329 
	C480.490082,479.178986 477.716370,476.470886 474.805725,473.450256 
	C475.079254,471.992950 475.489685,470.848206 475.793060,470.002014 
	C477.581635,470.002014 479.352356,469.932465 481.115845,470.015869 
	C485.392883,470.218201 487.182037,468.147461 487.036652,463.966827 
	C486.979950,462.336945 487.356140,460.692017 487.697601,458.709778 
	C490.873138,461.269928 493.886230,464.174194 497.025024,467.378479 
z"/>
<path fill="#D6E5EF" opacity="1.000000" stroke="none" 
	d="
M1134.751587,403.572998 
	C1138.176392,397.297913 1143.293945,394.735107 1148.640503,396.351624 
	C1154.359253,398.080658 1157.988770,403.097504 1157.490112,408.584137 
	C1156.840454,415.733246 1150.777710,420.343109 1143.503662,419.218689 
	C1136.309814,418.106659 1132.601685,411.721466 1134.751587,403.572998 
M1153.989502,412.203735 
	C1154.245728,411.419769 1154.614136,410.653320 1154.739624,409.848907 
	C1155.454224,405.268677 1154.022217,401.519653 1149.745850,399.515533 
	C1145.855957,397.692474 1142.046875,397.940125 1139.003540,401.553925 
	C1136.028687,405.086395 1135.438721,410.725708 1138.214966,413.917267 
	C1141.197266,417.345795 1145.257812,417.186432 1149.164917,415.879028 
	C1150.800415,415.331726 1152.145142,413.915741 1153.989502,412.203735 
z"/>
<path fill="#BED7E6" opacity="1.000000" stroke="none" 
	d="
M550.511230,470.267090 
	C550.294434,471.086151 549.731812,472.182434 548.951904,472.368591 
	C541.992065,474.029877 538.265442,479.156738 534.978271,484.891266 
	C534.311523,486.054474 533.075989,486.891632 531.769958,487.916962 
	C531.368042,482.811859 531.298889,477.668915 531.475708,472.112915 
	C531.806213,471.625427 531.890686,471.550995 531.975220,471.476532 
	C531.781860,471.393555 531.588440,471.310577 531.395081,471.227600 
	C533.152771,470.789032 534.901550,470.024658 536.669983,469.975891 
	C541.130188,469.852844 545.599182,470.052155 550.511230,470.267090 
z"/>
<path fill="#9FC4DB" opacity="1.000000" stroke="none" 
	d="
M531.317139,471.338684 
	C531.588440,471.310577 531.781860,471.393555 531.975220,471.476532 
	C531.890686,471.550995 531.806213,471.625427 531.547363,471.692902 
	C531.373047,471.685913 531.239197,471.449799 531.317139,471.338684 
z"/>
<path fill="#1B2933" opacity="1.000000" stroke="none" 
	d="
M857.040283,449.000000 
	C857.040344,438.866852 857.040344,429.233704 857.040344,418.306976 
	C866.992737,418.962219 876.943909,418.396912 886.286987,420.514526 
	C900.814148,423.807159 907.944397,437.043060 906.161499,454.033203 
	C904.658875,468.353119 894.020447,478.939148 879.592407,479.867920 
	C872.320618,480.335999 864.993896,479.949646 857.040283,479.949646 
	C857.040283,469.671783 857.040283,459.585907 857.040283,449.000000 
z"/>
<path fill="#1B2933" opacity="1.000000" stroke="none" 
	d="
M1091.942871,479.286804 
	C1082.453247,471.961975 1079.963623,459.187286 1085.778320,449.100525 
	C1092.824097,436.878387 1109.493896,436.494507 1117.205078,448.376801 
	C1122.784790,456.974670 1122.059692,468.948883 1115.516235,476.268341 
	C1109.760498,482.706604 1101.000122,483.918488 1091.942871,479.286804 
z"/>
<path fill="#1B2933" opacity="1.000000" stroke="none" 
	d="
M780.242676,477.858521 
	C772.370911,470.079559 770.971130,461.146912 774.695190,451.461914 
	C779.883972,437.967346 797.414307,435.542969 806.366028,446.905304 
	C811.765747,453.759064 812.564026,464.856018 808.008362,472.856262 
	C804.068237,479.775574 797.934631,483.063293 790.060181,481.872498 
	C786.768494,481.374725 783.701172,479.393433 780.242676,477.858521 
z"/>
<path fill="#1B2933" opacity="1.000000" stroke="none" 
	d="
M1023.086548,440.507721 
	C1035.631958,444.382751 1041.547974,457.170868 1036.818604,469.487244 
	C1032.606812,480.455750 1020.322693,485.272217 1009.602722,480.158234 
	C1000.755798,475.937775 996.277039,464.875824 999.250305,454.588867 
	C1002.369812,443.795929 1010.598389,438.803406 1023.086548,440.507721 
z"/>
<path fill="#1B2933" opacity="1.000000" stroke="none" 
	d="
M1153.805664,412.549255 
	C1152.145142,413.915741 1150.800415,415.331726 1149.164917,415.879028 
	C1145.257812,417.186432 1141.197266,417.345795 1138.214966,413.917267 
	C1135.438721,410.725708 1136.028687,405.086395 1139.003540,401.553925 
	C1142.046875,397.940125 1145.855957,397.692474 1149.745850,399.515533 
	C1154.022217,401.519653 1155.454224,405.268677 1154.739624,409.848907 
	C1154.614136,410.653320 1154.245728,411.419769 1153.805664,412.549255 
M1148.107788,412.422516 
	C1148.773804,413.040955 1149.439819,413.659393 1150.043091,414.219574 
	C1150.396362,410.966553 1151.138916,408.206573 1150.800903,405.586029 
	C1150.621826,404.197266 1148.704712,402.227814 1147.322266,401.993256 
	C1145.388672,401.665192 1141.586426,402.410980 1141.437012,403.222717 
	C1140.781616,406.781830 1141.154541,410.530243 1141.154541,414.210022 
	C1141.627686,414.283051 1142.100952,414.356110 1142.574097,414.429138 
	C1143.202637,412.899384 1143.831299,411.369659 1144.670044,409.328339 
	C1145.775757,410.176758 1146.760010,410.931885 1148.107788,412.422516 
z"/>
<path fill="#BED7E6" opacity="1.000000" stroke="none" 
	d="
M1147.926025,412.054749 
	C1146.760010,410.931885 1145.775757,410.176758 1144.670044,409.328339 
	C1143.831299,411.369659 1143.202637,412.899384 1142.574097,414.429138 
	C1142.100952,414.356110 1141.627686,414.283051 1141.154541,414.210022 
	C1141.154541,410.530243 1140.781616,406.781830 1141.437012,403.222717 
	C1141.586426,402.410980 1145.388672,401.665192 1147.322266,401.993256 
	C1148.704712,402.227814 1150.621826,404.197266 1150.800903,405.586029 
	C1151.138916,408.206573 1150.396362,410.966553 1150.043091,414.219574 
	C1149.439819,413.659393 1148.773804,413.040955 1147.926025,412.054749 
z"/>
</svg>